<svg xmlns="http://www.w3.org/2000/svg" height="24px" viewBox="0 -960 960 960" width="24px" fill="#000000" xmlns:bx="https://boxy-svg.com">
  <defs>
    <bx:export>
      <bx:file format="svg" href="#object-0" path="Sin título.svg"></bx:file>
      <bx:file format="svg" path="Sin título 2.svg"></bx:file>
    </bx:export>
  </defs>
  <g id="object-0">
    <path d="M240-80q-33 0-56.5-23.5T160-160v-640q0-33 23.5-56.5T240-880h560v80h-80v80q0 17-11.5 28.5T680-680H360q-17 0-28.5-11.5T320-720v-80h-80v640h162q-38-27-60-68.5T320-320v-200h400v200q0 50-22 91.5T638-160h162v80H240Zm280-120q50 0 85-35t35-85v-120H400v120q0 50 35 85t85 35Zm0-360q17 0 28.5-11.5T560-600q0-17-11.5-28.5T520-640q-17 0-28.5 11.5T480-600q0 17 11.5 28.5T520-560Zm0 120Z" style="fill: rgb(148, 121, 79);"></path>
    <path d="M 520.084 -560.011 C 531.417 -560.011 540.917 -563.844 548.584 -571.511 C 556.251 -579.178 560.084 -588.678 560.084 -600.011 C 560.084 -611.344 556.251 -620.844 548.584 -628.511 C 540.917 -636.178 531.417 -640.011 520.084 -640.011 C 508.751 -640.011 499.251 -636.178 491.584 -628.511 C 483.917 -620.844 480.084 -611.344 480.084 -600.011 C 480.084 -588.678 483.917 -579.178 491.584 -571.511 C 499.251 -563.844 508.751 -560.011 520.084 -560.011 Z M 520.084 -440.011 Z" style="fill: rgb(69, 133, 143);"></path>
    <path d="M 637.759 -159.823 L 401.759 -159.823 C 376.426 -177.823 356.426 -200.656 341.759 -228.323 C 327.092 -255.989 319.759 -286.489 319.759 -319.823 L 319.759 -519.823 L 719.759 -519.823 L 719.759 -319.823 C 719.759 -286.489 712.426 -255.989 697.759 -228.323 C 683.092 -200.656 663.092 -177.823 637.759 -159.823 Z M 519.759 -199.823 C 553.092 -199.823 581.426 -211.489 604.759 -234.823 C 628.092 -258.156 639.759 -286.489 639.759 -319.823 L 639.759 -439.823 L 399.759 -439.823 L 399.759 -319.823 C 399.759 -286.489 411.426 -258.156 434.759 -234.823 C 458.092 -211.489 486.426 -199.823 519.759 -199.823 Z M 519.759 -439.823 Z" style="fill: rgb(227, 108, 8);"></path>
  </g>
</svg>